<svg width="479" height="228" viewBox="0 0 479 228" fill="none" xmlns="http://www.w3.org/2000/svg">
<path d="M397.379 212.037L393.792 211.207C390.586 210.461 387.362 212.481 386.623 215.705C385.883 218.926 387.897 222.138 391.121 222.874L394.643 223.693C395.105 223.801 395.564 223.851 396.017 223.851C398.732 223.851 401.19 221.992 401.839 219.233C402.593 216.015 400.597 212.791 397.379 212.037Z" fill="#C0B8CC" fill-opacity="0.6"/>
<path d="M376.658 207.545L375.939 207.401C372.68 206.756 369.547 208.875 368.907 212.113C368.266 215.357 370.374 218.505 373.618 219.145L374.308 219.283C374.705 219.362 375.1 219.4 375.489 219.4C378.283 219.4 380.785 217.432 381.352 214.589C382.001 211.347 379.899 208.194 376.658 207.545Z" fill="#C0B8CC" fill-opacity="0.6"/>
<path d="M472.539 204.095C461.418 201.99 449.884 200.178 438.085 198.619C438.298 195.283 437.336 192.021 435.235 189.165L353.634 78.4346C353.245 77.3773 352.658 76.3846 351.684 75.6649C351.627 75.6225 351.57 75.5977 351.513 75.5557L325.555 40.3313C317.745 29.7362 303.973 23.4113 288.71 23.4084C288.707 23.4084 288.707 23.4084 288.707 23.4084C273.444 23.4084 259.666 29.7362 251.857 40.3313L142.182 189.163C140.708 191.161 139.83 193.365 139.477 195.647C134.733 195.971 130.143 196.313 125.686 196.672V154.697H151.71C164.573 154.697 175.04 144.266 175.04 131.443V84.4508C175.04 75.2119 168.04 67.4431 159.04 66.7592C154.005 66.426 149.15 68.2761 145.721 71.7776C142.46 75.0277 140.665 79.3301 140.665 83.8867V118.89H125.686V79.5844C125.686 70.4565 122.12 61.8401 115.599 55.2755C109.061 48.8337 100.421 45.2884 91.2728 45.2884C72.2951 45.2884 56.857 60.6739 56.857 79.5844V96.2442H40.4017V54.1064C40.4017 48.708 38.3031 43.6429 34.486 39.8374C30.9991 36.3739 26.3635 34.2899 21.3802 33.9743C16.0169 33.6849 10.7705 35.6315 6.71364 39.472C2.44637 43.5084 0 49.1757 0 55.0125V118.253C0 131.449 10.7705 142.185 24.0107 142.185H56.857V204.139C56.857 204.205 56.8928 204.26 56.895 204.326C44.9367 206.072 38.0949 207.325 37.9699 207.348C34.7198 207.95 32.5715 211.075 33.1736 214.325C33.7085 217.207 36.225 219.22 39.0543 219.22C39.4167 219.22 39.782 219.188 40.1503 219.121C40.3783 219.077 63.48 214.836 99.9973 211.04C103.285 210.698 105.673 207.754 105.331 204.466C104.989 201.175 102.026 198.781 98.758 199.132C87.4143 200.311 77.3556 201.534 68.8287 202.665V136.199C68.8287 132.893 66.1485 130.213 62.8428 130.213H24.0107C17.373 130.213 11.9717 124.847 11.9717 118.253V55.0125C11.9717 52.4492 13.0561 49.9532 14.9442 48.1644C16.5897 46.6066 18.6678 45.8437 20.6729 45.9256C22.7071 46.0542 24.6157 46.9076 26.0391 48.3252C27.5823 49.8596 28.4299 51.9143 28.4299 54.1064V102.23C28.4299 105.536 31.1101 108.216 34.4158 108.216H62.8428C66.1485 108.216 68.8287 105.536 68.8287 102.23V79.5844C68.8287 67.2736 78.8977 57.2601 91.2728 57.2601C97.2557 57.2601 102.914 59.5837 107.152 63.7575C111.384 68.0189 113.714 73.6394 113.714 79.5844V124.876C113.714 128.182 116.394 130.862 119.7 130.862H146.651C149.956 130.862 152.637 128.182 152.637 124.876V83.8867C152.637 82.5335 153.183 81.2445 154.224 80.2069C154.963 79.447 156.235 78.5585 158.196 78.7017C160.882 78.9063 163.068 81.4842 163.068 84.4508V131.443C163.068 137.663 157.974 142.725 151.71 142.725H119.7C116.394 142.725 113.714 145.406 113.714 148.711V198.477C113.714 199.34 113.912 200.149 114.24 200.89C113.879 201.752 113.651 202.675 113.737 203.671C114.018 206.962 116.909 209.455 120.211 209.122C132.566 208.062 146.264 207.109 160.909 206.377C160.132 206.502 159.303 206.627 158.538 206.752C155.273 207.284 153.06 210.359 153.592 213.62C154.069 216.558 156.609 218.645 159.494 218.645C159.812 218.645 160.137 218.621 160.461 218.566C189.057 213.907 225.778 209.096 266.962 206.356C296.457 207.921 327.043 210.949 357.474 216.169C357.816 216.228 358.155 216.254 358.491 216.254C361.353 216.254 363.884 214.196 364.387 211.279C364.923 208.146 362.891 205.223 359.839 204.5C367.976 204.74 376.154 205.058 384.396 205.545C387.711 205.77 390.528 203.224 390.724 199.924C390.92 196.621 388.403 193.789 385.103 193.596C343.795 191.157 303.613 191.948 266.914 194.364C225.507 192.197 186.355 192.917 152.893 194.81L235.115 83.2327C235.498 83.1173 235.892 83.0818 236.258 82.8842C246.633 77.2929 250.433 80.8499 254.107 84.293L254.738 84.8775C255.583 85.6579 256.057 86.3097 256.475 86.8679C257.465 88.189 258.827 90.0041 261.776 91.4275C263.986 92.4914 266.12 92.9093 268.16 92.9093C272.351 92.9093 276.154 91.1498 279.418 89.6387C283.376 87.812 287.126 86.0905 291.834 86.4441C294.757 86.6663 295.979 87.4613 297.826 88.6655C300.252 90.2467 303.602 92.4271 309.447 92.0062C316.406 91.5327 320.735 87.9961 324.21 85.1552C327.27 82.6562 329.147 81.2211 332.11 80.8528C335.4 80.451 339.098 81.6811 343.118 84.3459L425.596 196.265C425.85 196.61 425.935 196.871 426.017 197.121C420.023 196.436 413.978 195.809 407.866 195.268C404.54 195.011 401.667 197.414 401.375 200.702C401.082 203.996 403.517 206.901 406.808 207.193C428.887 209.149 450.252 212.063 470.311 215.856C470.688 215.929 471.063 215.962 471.431 215.962C474.251 215.962 476.762 213.959 477.306 211.089C477.922 207.839 475.786 204.709 472.539 204.095ZM330.634 68.9746C324.102 69.7872 319.96 73.1688 316.637 75.887C313.539 78.4152 311.639 79.8591 308.635 80.0637C306.767 80.1631 306.197 79.8299 304.359 78.6345C301.979 77.0854 298.723 74.9634 292.746 74.5075C284.928 73.9025 279.073 76.6031 274.391 78.7747C270.209 80.7126 268.484 81.3643 266.976 80.6453C266.655 80.4875 266.655 80.4875 266.05 79.6837C265.374 78.7806 264.448 77.5443 262.849 76.0741L262.291 75.5538C259.592 73.0275 254.506 68.317 246.299 68.0562L261.496 47.4337C267.058 39.8871 277.229 35.3801 288.707 35.3801C288.707 35.3801 288.707 35.3801 288.71 35.3801C300.185 35.3801 310.356 39.8871 315.915 47.4337L331.78 68.9622C331.4 68.9904 331.013 68.9275 330.634 68.9746Z" fill="#C0B8CC" fill-opacity="0.6"/>
<path d="M143.497 209.315L141.372 209.698C138.119 210.288 135.962 213.404 136.552 216.657C137.075 219.547 139.598 221.573 142.436 221.573C142.789 221.573 143.149 221.544 143.511 221.477L145.613 221.099C148.866 220.515 151.032 217.402 150.447 214.149C149.863 210.893 146.735 208.724 143.497 209.315Z" fill="#C0B8CC" fill-opacity="0.6"/>
<path d="M124.199 212.972C117.114 214.404 113.273 215.29 113.273 215.29C110.052 216.035 108.044 219.25 108.79 222.471C109.427 225.239 111.891 227.109 114.615 227.109C115.062 227.109 115.515 227.06 115.968 226.957C116.015 226.946 119.738 226.086 126.572 224.704C129.813 224.049 131.909 220.893 131.251 217.651C130.597 214.41 127.46 212.314 124.199 212.972Z" fill="#C0B8CC" fill-opacity="0.6"/>
<path d="M129.611 38.5314C134.889 33.2763 138.628 33.2763 143.906 38.5314C145.028 39.6479 146.545 40.2763 148.13 40.2763C151.517 40.2763 154.186 38.6659 156.541 37.2454C160.546 34.837 162.033 33.9427 166.648 38.5314C167.817 39.6947 169.343 40.2763 170.872 40.2763C172.409 40.2763 173.944 39.6889 175.113 38.5139C177.445 36.1698 177.439 32.3819 175.095 30.0495C163.857 18.8552 154.744 24.353 150.36 26.9923C150.1 27.1501 149.798 27.3313 149.5 27.5096C140.302 20.2669 130.134 21.1087 121.164 30.0495C118.82 32.3819 118.814 36.1728 121.146 38.5139C123.479 40.8609 127.273 40.8609 129.611 38.5314Z" fill="#C0B8CC" fill-opacity="0.6"/>
<path d="M192.153 15.8859C197.423 10.6308 201.161 10.6249 206.449 15.8859C207.568 17.0024 209.088 17.6308 210.672 17.6308C214.06 17.6308 216.731 16.0204 219.087 14.5999C223.082 12.1915 224.579 11.2942 229.194 15.8859C230.363 17.0492 231.889 17.6308 233.417 17.6308C234.955 17.6308 236.489 17.0434 237.658 15.8684C239.991 13.5243 239.985 9.7364 237.641 7.40402C226.405 -3.78147 217.289 1.71044 212.905 4.3468C212.645 4.50463 212.341 4.68584 212.046 4.86413C202.845 -2.37854 192.671 -1.53385 183.706 7.40402C181.362 9.7364 181.357 13.5273 183.689 15.8684C186.024 18.2154 189.812 18.2213 192.153 15.8859Z" fill="#C0B8CC" fill-opacity="0.6"/>
<path d="M361.587 22.6779C365.319 18.963 367.596 18.9572 371.334 22.6779C372.456 23.7944 373.973 24.4228 375.558 24.4228C378.6 24.4228 380.988 22.9818 382.908 21.8273C386.015 19.948 386.495 19.6616 389.528 22.6779C391.875 25.0132 395.663 25.0015 397.993 22.6603C400.325 20.3192 400.319 16.5283 397.975 14.196C388.324 4.58 380.202 9.47858 376.727 11.5742C369.078 6.00631 360.485 6.88607 353.14 14.196C350.796 16.5283 350.79 20.3163 353.122 22.6603C355.458 25.0044 359.245 25.0161 361.587 22.6779Z" fill="#C0B8CC" fill-opacity="0.6"/>
<path d="M388.48 52.3599C382.123 48.1072 375.049 49.0045 368.979 55.043C366.635 57.3754 366.629 61.1662 368.961 63.5074C371.297 65.8514 375.084 65.8631 377.426 63.5249C379.857 61.1048 380.842 61.1048 383.274 63.5249C384.394 64.6414 385.913 65.2698 387.498 65.2698C390.245 65.2698 392.376 63.9838 393.934 63.0456C394.486 62.7124 395.412 62.1541 395.655 62.1015C395.661 62.1044 396.301 62.2623 397.572 63.5249C399.916 65.8602 403.704 65.8485 406.037 63.5074C408.369 61.1633 408.36 57.3754 406.019 55.043C398.379 47.435 391.63 50.5419 388.48 52.3599Z" fill="#C0B8CC" fill-opacity="0.6"/>
<path d="M427.199 43.6848C428.728 43.6848 430.254 43.1031 431.423 41.9399C436.678 36.7139 440.574 36.7198 445.818 41.9399C446.94 43.0564 448.457 43.6848 450.041 43.6848C453.434 43.6848 456.115 42.0685 458.479 40.6451C462.504 38.2162 464.009 37.3102 468.659 41.9399C471.003 44.2752 474.791 44.2635 477.124 41.9223C479.456 39.5783 479.45 35.7903 477.106 33.458C465.824 22.2257 456.685 27.7439 452.295 30.3919C452.031 30.5527 451.722 30.7398 451.415 30.921C442.193 23.652 431.984 24.4908 422.976 33.458C420.632 35.7903 420.626 39.5812 422.959 41.9223C424.128 43.0973 425.662 43.6848 427.199 43.6848Z" fill="#C0B8CC" fill-opacity="0.6"/>
<path d="M207.907 46.2504C201.255 41.7026 193.845 42.5999 187.497 48.9219C185.153 51.2542 185.147 55.0451 187.48 57.3862C189.812 59.7303 193.606 59.742 195.944 57.4038C198.68 54.6797 199.934 54.6914 202.658 57.4038C203.78 58.5203 205.297 59.1487 206.881 59.1487C209.693 59.1487 211.905 57.8159 213.522 56.8426C214.121 56.4802 215.24 55.805 215.585 55.7933C215.591 55.7933 216.319 55.9073 217.821 57.4038C218.99 58.567 220.516 59.1487 222.045 59.1487C223.582 59.1487 225.116 58.5612 226.285 57.3862C228.618 55.0451 228.612 51.2542 226.268 48.9219C218.16 40.8462 211.257 44.2717 207.907 46.2504Z" fill="#C0B8CC" fill-opacity="0.6"/>
</svg>
